<?xml version="1.0" standalone="no"?>
<!DOCTYPE svg PUBLIC "-//W3C//DTD SVG 20010904//EN"
 "http://www.w3.org/TR/2001/REC-SVG-20010904/DTD/svg10.dtd">
<svg version="1.0" xmlns="http://www.w3.org/2000/svg"
 width="880.000000pt" height="880.000000pt" viewBox="0 0 880.000000 880.000000"
 preserveAspectRatio="xMidYMid meet">
<metadata>
Created by potrace 1.14, written by Peter Selinger 2001-2017
</metadata>
<g transform="translate(0.000000,880.000000) scale(0.100000,-0.100000)"
fill="#000000" stroke="none">
<path d="M4148 8795 c-2 -2 -39 -6 -83 -9 -44 -3 -93 -8 -110 -11 -16 -2 -52
-7 -78 -10 -26 -3 -71 -10 -100 -16 -66 -12 -105 -19 -137 -24 -14 -3 -77 -18
-140 -35 -63 -16 -124 -32 -134 -35 -34 -8 -240 -77 -271 -90 -16 -7 -70 -29
-120 -50 -174 -72 -433 -209 -581 -309 -103 -69 -214 -151 -214 -158 0 -4 -6
-8 -13 -8 -7 0 -20 -8 -29 -17 -8 -10 -29 -28 -44 -40 -65 -49 -78 -60 -130
-110 -30 -29 -56 -53 -58 -53 -6 0 -142 -139 -215 -220 -93 -102 -211 -248
-211 -260 0 -5 -4 -10 -10 -10 -5 0 -10 -5 -10 -11 0 -7 -8 -19 -18 -28 -11
-9 -21 -20 -23 -26 -2 -5 -34 -56 -72 -112 -37 -56 -67 -107 -67 -113 0 -5 -4
-10 -10 -10 -5 0 -10 -5 -10 -10 0 -6 -12 -29 -26 -51 -33 -53 -145 -277 -178
-359 -15 -36 -33 -78 -41 -95 -23 -49 -140 -418 -149 -467 -2 -15 -7 -32 -10
-36 -3 -5 -8 -24 -10 -43 -3 -19 -14 -81 -26 -138 -11 -58 -19 -110 -16 -117
3 -7 2 -15 -2 -18 -3 -4 -7 -14 -9 -24 -33 -212 -38 -629 -9 -792 3 -14 7 -41
10 -60 10 -61 43 -192 75 -300 35 -114 118 -339 132 -355 5 -5 9 -15 9 -23 0
-23 252 -527 271 -542 4 -3 15 -22 25 -42 62 -122 356 -574 476 -733 4 -5 78
-104 165 -220 86 -115 162 -215 167 -221 6 -6 22 -25 36 -43 14 -18 33 -42 43
-54 10 -12 31 -37 45 -56 15 -19 43 -53 62 -76 19 -23 53 -63 75 -90 22 -27
49 -59 60 -71 11 -12 34 -40 52 -61 18 -21 44 -51 58 -68 23 -26 89 -102 136
-157 27 -31 142 -158 173 -192 296 -323 355 -384 701 -731 269 -269 450 -445
631 -612 99 -91 187 -168 194 -171 5 -2 22 11 39 27 18 17 33 31 34 31 2 0 36
30 76 68 406 374 848 813 1186 1176 153 164 162 175 320 350 6 6 41 47 80 91
38 44 74 85 80 91 5 6 28 32 50 59 22 27 49 58 60 71 26 29 51 58 105 124 25
30 47 57 50 60 3 3 24 27 45 55 22 27 45 55 50 61 6 6 19 23 30 38 11 15 29
38 40 51 57 67 305 393 305 401 0 3 6 11 13 19 6 7 21 25 32 41 11 15 26 33
33 41 7 7 11 13 7 13 -3 0 3 10 15 22 11 12 20 25 20 29 0 4 6 14 13 21 11 12
78 108 102 147 6 9 23 33 38 53 16 21 25 38 20 38 -4 0 -3 4 2 8 15 11 185
275 185 288 0 3 8 17 19 32 31 46 76 127 73 135 -1 4 2 7 6 7 5 0 14 16 22 35
8 19 16 35 19 35 3 0 15 20 26 45 11 25 23 45 27 45 5 0 7 3 6 8 -1 4 23 59
54 122 79 162 181 404 193 455 1 5 5 17 8 25 16 43 70 229 81 280 20 90 27
128 30 150 2 14 5 25 6 25 2 0 7 38 15 130 11 130 6 439 -9 531 -3 16 -8 61
-12 99 -3 39 -8 79 -11 90 -2 11 -6 34 -9 50 -4 27 -17 93 -28 150 -29 143
-95 373 -144 500 -14 39 -27 72 -28 75 0 3 -7 19 -14 35 -7 17 -14 32 -15 35
0 3 -6 15 -13 28 -7 12 -11 22 -8 22 9 0 -188 386 -205 400 -3 3 -9 12 -12 20
-4 8 -18 33 -32 55 -14 22 -31 50 -37 63 -6 12 -15 22 -20 22 -4 0 -8 5 -8 11
0 6 -6 17 -12 24 -25 28 -34 40 -40 55 -8 19 -156 208 -228 290 -126 145 -326
335 -474 453 -34 26 -68 53 -76 60 -8 7 -37 28 -65 47 -27 19 -51 38 -53 43
-2 4 -8 7 -14 7 -11 0 -101 61 -106 73 -2 4 -8 7 -13 7 -5 0 -45 22 -89 50
-44 27 -80 46 -80 43 0 -3 -8 1 -18 10 -25 23 -286 146 -417 196 -60 23 -118
47 -127 52 -10 5 -26 9 -36 9 -10 0 -23 5 -30 12 -7 7 -12 8 -12 4 0 -5 -7 -3
-15 4 -8 7 -15 10 -15 6 0 -3 -12 -1 -27 5 -16 6 -35 12 -43 15 -8 2 -33 8
-55 14 -122 33 -295 71 -385 84 -88 13 -111 16 -160 22 -30 3 -73 8 -95 10
-46 6 -552 14 -557 9z"/>
</g>
</svg>
